<?xml version="1.0" encoding="UTF-8" standalone="no"?>
<svg width="1317px" height="1237px" viewBox="0 0 1317 1237" version="1.1" xmlns="http://www.w3.org/2000/svg" xmlns:xlink="http://www.w3.org/1999/xlink" xmlns:sketch="http://www.bohemiancoding.com/sketch/ns">
    <!-- Generator: Sketch 3.3.1 (12005) - http://www.bohemiancoding.com/sketch -->
    <title>Imported Layers</title>
    <desc>Created with Sketch.</desc>
    <defs></defs>
    <g id="artist-in-product" stroke="none" stroke-width="1" fill="none" fill-rule="evenodd" sketch:type="MSPage">
        <g id="Artboard-17" sketch:type="MSArtboardGroup" transform="translate(-614.000000, -3003.000000)">
            <g id="Imported-Layers" sketch:type="MSLayerGroup" transform="translate(1272.500000, 3621.500000) scale(-1, 1) translate(-1272.500000, -3621.500000) translate(614.000000, 3003.000000)">
                <path d="M476.93672,28.2262535 C147.341571,102.82635 -59.3465428,430.479962 15.2169756,760.09419 C89.8185573,1089.67722 417.469358,1296.3605 747.049532,1221.77476 C1076.63095,1147.18152 1283.3615,819.540391 1208.77801,489.940515 C1134.18704,160.344384 806.535614,-46.3663549 476.93672,28.2262535" id="Fill-1" fill="#2A388F" sketch:type="MSShapeGroup"></path>
                <path d="M1093.54207,516.217456 C1153.66269,781.649353 987.010698,1045.54152 721.353186,1105.60708 C455.720026,1165.70196 191.606021,999.206234 131.475411,733.763731 C71.3510455,468.331834 237.980557,204.460252 503.641191,144.393446 C769.29121,84.302309 1033.41021,250.795542 1093.54207,516.217456 L1093.54207,516.217456 Z M1139.28347,505.884194 C1205.11169,796.59119 1022.67372,1085.52076 731.736272,1151.31662 C440.792584,1217.1312 151.588464,1034.79151 85.7277697,744.117581 C19.8989194,453.446771 202.36312,164.456059 493.28433,98.6639404 C784.20429,32.8849234 1073.43838,215.205897 1139.28347,505.884194 L1139.28347,505.884194 Z M1182.46297,496.107429 C1253.69284,810.63714 1056.24813,1123.29522 741.485595,1194.47077 C426.723687,1265.64943 113.776899,1068.39598 42.5339087,753.895594 C-28.6841059,439.389591 168.738132,126.710921 483.511279,55.5328793 C798.302534,-15.6576404 1111.22559,181.607665 1182.46297,496.107429 L1182.46297,496.107429 Z M1044.32278,527.351776 C1098.29372,765.640065 948.712728,1002.53212 710.21583,1056.45811 C471.740785,1110.39096 234.651901,960.921443 180.69095,722.649376 C126.731873,484.35672 276.284771,247.474025 514.77605,193.554895 C753.237982,139.612682 990.345598,289.087819 1044.32278,527.351776 L1044.32278,527.351776 Z M996.212426,538.234673 C1044.1723,749.962678 911.263937,960.462894 699.352583,1008.37784 C487.416878,1056.31524 276.755566,923.492611 228.78882,711.758368 C180.846425,500.050327 313.75042,289.513926 525.65553,241.604597 C737.565635,193.689029 948.241309,326.50043 996.212426,538.234673 L996.212426,538.234673 Z M949.683664,548.773815 C991.810432,734.826192 875.005245,919.783043 688.825262,961.874726 C502.5972,1004.00821 317.48431,887.321514 275.330693,701.227337 C233.191438,515.189932 349.981639,330.247431 536.184725,288.121434 C722.41466,246.006044 907.521306,362.705217 949.683664,548.773815 Z M899.107566,560.175154 C934.91919,718.354611 835.648299,875.560198 677.364468,911.335135 C519.07814,947.145008 361.710923,847.974886 325.911787,689.799171 C290.084553,531.647164 389.361063,374.432219 547.661128,338.63919 C705.922481,302.843666 863.29282,402.029385 899.107566,560.175154 Z" id="Stroke-2" stroke="#90A8E4" stroke-width="7.413" sketch:type="MSShapeGroup"></path>
                <path d="M405,626.007183 C405,511.115954 498.111796,418 612.992817,418 C727.868217,418 821,511.115954 821,626.007183 C821,740.882172 727.868217,834 612.992817,834 C498.111796,834 405,740.882172 405,626.007183 Z M563,625.02394 C563,597.942906 584.938647,576 611.999689,576 C639.050163,576 661,597.942906 661,625.02394 C661,652.081966 639.050163,674 611.999689,674 C584.938647,674 563,652.081966 563,625.02394 Z" id="Fill-3" fill="#EB80FC" sketch:type="MSShapeGroup"></path>
                <path d="M563,625.02394 C563,597.942906 584.938647,576 611.999689,576 C639.050163,576 661,597.942906 661,625.02394 C661,652.081966 639.050163,674 611.999689,674 C584.938647,674 563,652.081966 563,625.02394" id="Fill-4" fill="#5B45E9" sketch:type="MSShapeGroup"></path>
                <path d="M1096.36403,272.887482 L1317,298.406561 C1317,298.406561 1169.24016,268.907287 1118.57061,256.97045 L1297.52622,161.047388 C1297.52622,161.047388 1143.22828,228.126217 1103.62048,243.046638 L1129.57364,0 L1079.05339,216.035767 L973.258109,22.9607393 L1063.38742,250.101586 L829,213.754055 L1057.97116,267.895691 L848.478149,369.968885 L1068.86551,283.184533 L1020.44966,615 C1053.59556,392.194031 1072.97064,313.572388 1083.12354,286.242427 L1234.77114,590.234623 C1115.49988,349.546503 1097.24977,288.308706 1096.36403,272.887482" id="Fill-5" fill="#F0F1F1" sketch:type="MSShapeGroup"></path>
                <path d="M1181.4942,797.219962 L1070,847.879075 L1175.69696,791.446682 L1100.01228,767.038195 L1173.80475,774.383059 L1106.42005,673 L1191.4108,767.599876 L1195.29958,712.908631 L1203.68455,763.618239 L1286.37315,681.87468 L1215.24528,763.646292 L1307,766.502697 L1214.77536,782.891805 L1264.37964,831.131514 L1204.68627,801.580001 L1224.83569,892 L1191.9001,807.66872 L1166.63084,841.872021 L1181.4942,797.219962" id="Fill-6" fill="#F0F1F1" sketch:type="MSShapeGroup"></path>
            </g>
        </g>
    </g>
</svg>